<svg width="1082" height="658" viewBox="0 0 1082 658" fill="none" xmlns="http://www.w3.org/2000/svg">
<path fill-rule="evenodd" clip-rule="evenodd" d="M433.227 512.852C434.961 510.706 436 507.974 436 505C436 498.096 430.404 492.5 423.5 492.5C419.183 492.5 415.377 494.688 413.131 498.016L413.112 498.002L322.699 624.268L229.047 497.839C226.69 494.656 222.964 492.779 219.003 492.779C215.042 492.779 211.316 494.656 208.959 497.839L115.221 624.385L23.1038 497.92L23.0628 497.95C20.7699 495.229 17.3368 493.5 13.5 493.5C6.59644 493.5 1 499.096 1 506C1 508.437 1.69737 510.711 2.90344 512.634L2.8962 512.639L2.97904 512.753C3.2416 513.161 3.52728 513.553 3.83421 513.927L105.032 652.859C107.374 656.075 111.108 657.984 115.086 658C119.064 658.016 122.812 656.137 125.18 652.94L219.003 526.28L312.826 652.94C315.204 656.151 318.975 658.032 322.971 657.999C326.967 657.967 330.707 656.026 333.033 652.777L433.227 512.852Z" fill="#0ACF41"/>
<path fill-rule="evenodd" clip-rule="evenodd" d="M219.003 354.861C223.04 354.861 226.828 356.81 229.175 360.095L323.077 491.559L368.124 431.027C370.369 427.693 374.178 425.5 378.5 425.5C385.404 425.5 391 431.096 391 438C391 440.945 389.982 443.652 388.278 445.788L388.294 445.799L332.898 520.237C330.514 523.441 326.742 525.313 322.748 525.274C318.754 525.235 315.02 523.29 312.698 520.04L219.003 388.867L125.308 520.04C122.986 523.29 119.252 525.235 115.258 525.274C111.264 525.313 107.492 523.441 105.108 520.237L49.7123 445.799L49.7241 445.791C48.0191 443.654 47 440.946 47 438C47 431.096 52.5964 425.5 59.5 425.5C63.7805 425.5 67.5585 427.652 69.8115 430.932L114.929 491.559L208.831 360.095C211.178 356.81 214.966 354.861 219.003 354.861Z" fill="#33A9DC"/>
<path fill-rule="evenodd" clip-rule="evenodd" d="M219.003 0C223.832 0 228.229 2.78157 230.298 7.14505L436.301 441.656L436.279 441.666C437.373 443.524 438 445.688 438 448C438 454.904 432.404 460.5 425.5 460.5C420.121 460.5 415.536 457.102 413.773 452.336L413.711 452.366L219.003 41.6786L24.2949 452.366L24.2283 452.334C22.4659 457.101 17.8799 460.5 12.5 460.5C5.59644 460.5 0 454.904 0 448C0 445.688 0.62792 443.522 1.72255 441.664L1.70511 441.656L207.708 7.14505C209.777 2.78157 214.174 0 219.003 0Z" fill="#F16529"/>
<path d="M638.497 328.68H561.817L543.457 387H518.887L578.827 207.18C579.907 202.86 582.877 200.7 587.737 200.7H612.577C617.437 200.7 620.407 202.86 621.487 207.18L681.427 387H656.857L638.497 328.68ZM632.017 308.16L608.527 234.18C606.907 229.5 605.377 224.46 603.937 219.06H596.377L591.787 234.18L568.297 308.16H632.017ZM851.006 200.7V377.55C851.006 383.85 847.946 387 841.826 387H818.606C813.746 387 810.236 384.48 808.076 379.44L745.166 247.41C739.046 234.09 735.536 225.9 734.636 222.84H730.316C731.036 230.04 731.396 238.23 731.396 247.41V387H707.636V210.15C707.636 203.85 710.786 200.7 717.086 200.7H739.496C744.356 200.7 747.866 203.22 750.026 208.26L811.046 337.05C815.546 345.87 819.776 354.87 823.736 364.05H828.326C827.786 354.33 827.516 344.88 827.516 335.7V200.7H851.006ZM898.007 387V200.7C921.407 199.08 943.547 198.27 964.427 198.27C991.247 198.27 1010.06 205.29 1020.86 219.33C1031.66 233.19 1037.06 258.03 1037.06 293.85C1037.06 329.67 1031.66 354.6 1020.86 368.64C1010.06 382.5 991.247 389.43 964.427 389.43C943.547 389.43 921.407 388.62 898.007 387ZM921.767 219.33V368.1C937.967 368.46 952.187 368.64 964.427 368.64C982.247 368.64 994.667 363.24 1001.69 352.44C1008.71 341.46 1012.22 321.93 1012.22 293.85C1012.22 265.77 1008.71 246.24 1001.69 235.26C994.667 224.28 982.247 218.79 964.427 218.79C952.907 218.79 938.687 218.97 921.767 219.33ZM661.646 440.55L646.946 510.27C646.456 512.09 645.231 513 643.271 513H632.771C630.741 513 629.551 512.055 629.201 510.165L617.861 455.67C617.441 453.85 616.881 451.12 616.181 447.48H613.976L612.401 455.67L601.166 510.165C600.676 512.055 599.451 513 597.491 513H586.886C585.976 513 585.171 512.755 584.471 512.265C583.841 511.705 583.456 511.04 583.316 510.27L568.616 440.55H578.381L589.721 497.04C589.861 497.67 590.351 500.645 591.191 505.965H593.606C594.166 502.675 594.726 499.7 595.286 497.04L606.521 443.595C606.871 441.565 608.061 440.55 610.091 440.55H620.171C622.061 440.55 623.251 441.565 623.741 443.595L634.976 497.04C635.676 500.47 636.166 503.445 636.446 505.965H639.071C639.701 501.765 640.156 498.825 640.436 497.145L651.881 440.55H661.646ZM718.057 505.335L718.477 512.475C712.037 512.895 701.677 513.105 687.397 513.105C683.127 513.105 679.732 511.985 677.212 509.745C674.762 507.435 673.502 504.355 673.432 500.505V453.045C673.502 449.195 674.762 446.15 677.212 443.91C679.732 441.6 683.127 440.445 687.397 440.445C701.677 440.445 712.037 440.655 718.477 441.075L718.057 448.32H688.972C684.772 448.32 682.672 450.63 682.672 455.25V471H713.962V478.455H682.672V498.3C682.672 502.99 684.772 505.335 688.972 505.335H718.057ZM768.202 475.2V475.62C773.452 476.11 777.162 477.965 779.332 481.185C781.572 484.335 782.692 488.92 782.692 494.94C782.692 502.22 780.977 507.19 777.547 509.85C774.117 512.51 768.132 513.84 759.592 513.84C747.972 513.84 739.047 513.56 732.817 513V440.55C738.347 439.99 746.187 439.71 756.337 439.71C765.367 439.71 771.632 441.04 775.132 443.7C778.702 446.29 780.487 451.26 780.487 458.61C780.487 463.86 779.507 467.85 777.547 470.58C775.587 473.24 772.472 474.78 768.202 475.2ZM741.847 471.945H757.387C762.777 471.875 766.487 471 768.517 469.32C770.547 467.64 771.562 464.42 771.562 459.66C771.562 454.83 770.442 451.61 768.202 450C766.032 448.39 761.937 447.585 755.917 447.585H741.847V471.945ZM741.847 478.98V505.86C744.717 505.93 750.142 505.965 758.122 505.965C764.002 505.965 767.992 505.125 770.092 503.445C772.262 501.765 773.347 498.405 773.347 493.365C773.347 487.835 772.192 484.09 769.882 482.13C767.642 480.17 763.512 479.12 757.492 478.98H741.847ZM821.308 513V440.55C830.408 439.92 839.018 439.605 847.138 439.605C857.568 439.605 864.883 442.335 869.083 447.795C873.283 453.185 875.383 462.845 875.383 476.775C875.383 490.705 873.283 500.4 869.083 505.86C864.883 511.25 857.568 513.945 847.138 513.945C839.018 513.945 830.408 513.63 821.308 513ZM830.548 447.795V505.65C836.848 505.79 842.378 505.86 847.138 505.86C854.068 505.86 858.898 503.76 861.628 499.56C864.358 495.29 865.723 487.695 865.723 476.775C865.723 465.855 864.358 458.26 861.628 453.99C858.898 449.72 854.068 447.585 847.138 447.585C842.658 447.585 837.128 447.655 830.548 447.795ZM935.029 505.335L935.449 512.475C929.009 512.895 918.649 513.105 904.369 513.105C900.099 513.105 896.704 511.985 894.184 509.745C891.734 507.435 890.474 504.355 890.404 500.505V453.045C890.474 449.195 891.734 446.15 894.184 443.91C896.704 441.6 900.099 440.445 904.369 440.445C918.649 440.445 929.009 440.655 935.449 441.075L935.029 448.32H905.944C901.744 448.32 899.644 450.63 899.644 455.25V471H930.934V478.455H899.644V498.3C899.644 502.99 901.744 505.335 905.944 505.335H935.029ZM1002.81 440.55L980.869 510.375C980.239 512.125 979.049 513 977.299 513H967.954C966.064 513 964.874 512.125 964.384 510.375L942.439 440.55H951.994L969.109 497.985C970.089 501.485 970.789 504.11 971.209 505.86H974.044C974.744 502.99 975.479 500.33 976.249 497.88L993.259 440.55H1002.81Z" fill="white"/>
</svg>
